<svg xmlns="http://www.w3.org/2000/svg" viewBox="0 0 251.1 70.2">
	<style>
		.st0{display:none}.st1{display:inline;fill:#fff}.st2,.st6{fill:none;stroke:#ccc;stroke-width:1.4151;stroke-miterlimit:10}.st2{display:inline}.st6{stroke-dasharray:5.7783,5.7783}.st19,.st20,.st6{display:inline}.st19{fill:#fff;stroke:#ccc;stroke-width:1.4151;stroke-miterlimit:10}.st20{enable-background:new}.st22{fill:#2868cb}.st23{display:inline;fill:gray}.st25{enable-background:new}
	</style>
	<g id="Layer_1" class="st0">
		<path class="st1" d="M244.3 13.7h-6.4c-.5 0-1.1 0-1.6.2-1.9-.7-3.8-.9-5.8-.9-5.7 0-10.6 2.3-14.2 6.6-.6.7-1.1 1.4-1.5 2.2-1.2-2.6-3-4.7-5.2-6-1.7-1-3.6-1.8-5.6-2.3-1.8-.4-3.6-.6-5.5-.5-5 0-9.5 1.1-13.3 3.2-1.2-1.5-3-2.4-4.9-2.4h-6.2c-2.3 0-4.4 1.3-5.5 3.3-1-2-3.2-3.3-5.5-3.3h-5.9c-2.3 0-4.4 1.3-5.5 3.3-1-2-3.2-3.3-5.5-3.3H140c-.7 0-1.3.1-1.9.3-1.2-3.8-3.6-7-6.9-9.2-3.3-2.3-7.4-3.4-12.1-3.4-5.7 0-10.4 1.6-14.1 4.8-2.4 2-4.1 4.7-5 7.7-.5-.1-1-.2-1.6-.2h-4.3c-2.6 0-4.9 1.7-5.8 4.1l-2.8 8-2.9-8.1c-.8-2.5-3.2-4.1-5.8-4.1h-4.4c-2.5 0-4.8 1.6-5.7 3.9-3.3-3-7.5-4.6-12.2-4.6-5.8 0-10.8 2.2-14.5 6.5-.7.8-1.3 1.7-1.8 2.5V6.8c0-3.4-2.7-6.1-6.1-6.1-.9 0-1.9.2-2.8.7L25 3.5c-2.1 1-3.4 3.2-3.4 5.5v4h-2.1c-5.6 0-10.5 2.3-14 6.6-3.2 4-4.8 9.3-4.8 15.8 0 6.4 1.6 11.7 4.8 15.7 3.5 4.4 8.4 6.8 14.3 6.8 2.1 0 4.2-.4 6.3-1.1.7.2 1.4.4 2.1.4h4.3c3.4 0 6.1-2.7 6.1-6.1v-2.7c.5.8 1 1.7 1.7 2.5C43.9 55.6 49 58 55 58c5 0 9.5-1.7 13.4-5 2.6-2.1 3-5.9.8-8.6l-1-1.2c2.4-.4 4.3-2.3 4.9-4.7l5.3 14.7c.9 2.4 3.2 4 5.8 4h3c2.5 0 4.9-1.6 5.8-4l9.2-25.3c.4.7.9 1.3 1.5 1.9 1.3 1.4 2.8 2.6 4.5 3.5l-.2.1-6 2.2c-3.1 1.1-4.7 4.5-3.7 7.6 1.4 4.4 4.3 8.3 8.2 10.8 3.8 2.5 8.3 3.8 13.3 3.8 5.8 0 10.6-1.6 14.4-4.8 3.1-2.5 5.1-6 5.9-9.9l2.5 9.4c.7 2.7 3.2 4.5 5.9 4.5h5.6c2.7 0 5.1-1.8 5.9-4.4l.2-.8.2.8c.8 2.6 3.2 4.4 5.9 4.4h5.6c2.8 0 5.2-1.9 5.9-4.5l1.5-5.5c.8 2.5 2.3 4.8 4.3 6.5 3.2 2.8 7.3 4.2 12.1 4.2 2.2 0 4.4-.4 6.5-1.1.7.2 1.4.4 2.1.4h6.1c3.2 0 5.8-2.4 6.1-5.6 1.3 1.5 2.8 2.8 4.4 3.8 0 .1-.1.1-.1.2-1 1.9-.8 4.3.3 6.1l3.2 4.9c1.1 1.7 3.1 2.8 5.1 2.8h.4c6.5-.5 11.3-2.2 14.8-5.3 3.7-3.3 5.6-8.4 5.6-15v-29c.2-3.4-2.5-6.2-5.9-6.2zm-128.6 23l.4.1c1.2.4 2.1.8 2.7 1 .3.1 1 .4 2 .9.2.1.5.2.7.4l.1.1c.1.1 0 0 0 .1-1.4.5-2.9.3-4.2-.4-.7-.6-1.3-1.4-1.7-2.2zM135 26c-.8-.8-1.8-1.5-2.7-2.2-.4-.3-.8-.6-1.4-.8l3.4-1.1 1.3 4.8c-.1-.3-.3-.5-.6-.7z"/>
		<path class="st2" d="M215.8 20.2c-.4.5-.7 1-1 1.5-.2-.6-.6-1.1-.8-1.6"/>
		<path d="M211.9 17.5c-.7-.7-1.5-1.3-2.3-1.8-1.7-1-3.6-1.8-5.6-2.3-1.8-.4-3.6-.6-5.5-.5-3.4 0-6.9.5-10.1 1.7" fill="none" stroke="#ccc" stroke-width="1.415" stroke-miterlimit="10" stroke-dasharray="5.0991,5.0991"/>
		<path class="st2" d="M186.9 15.3c-.6.2-1.1.5-1.7.8-.4-.5-.8-.9-1.3-1.2"/>
		<path d="M181.2 13.8h-7c-1.1 0-2.3.3-3.2.9" fill="none" stroke="#ccc" stroke-width="1.415" stroke-miterlimit="10" stroke-dasharray="4.6085,4.6085"/>
		<path class="st2" d="M169.7 15.6c-.4.4-.8.9-1.1 1.5-.3-.6-.7-1-1.1-1.5"/>
		<path d="M165 14c-.6-.1-1.1-.2-1.7-.2h-5.9c-1.1 0-2.2.3-3.2.8" fill="none" stroke="#ccc" stroke-width="1.415" stroke-miterlimit="10" stroke-dasharray="4.816,4.816"/>
		<path class="st2" d="M153 15.6c-.4.4-.8.9-1.1 1.5-.3-.6-.7-1-1.1-1.5"/>
		<path class="st6" d="M147.5 13.8c-.4 0-.8-.1-1.1-.1h-4.5"/>
		<path class="st2" d="M140 13.7c-.6 0-1.2.1-1.8.3-.2-.6-.4-1.2-.7-1.7"/>
		<path d="M135.9 9.2c-1.2-1.7-2.8-3.3-4.6-4.5-3.3-2.3-7.4-3.4-12.1-3.4-5.7 0-10.4 1.6-14.1 4.8-1.5 1.3-2.7 2.8-3.6 4.4" fill="none" stroke="#ccc" stroke-width="1.415" stroke-miterlimit="10" stroke-dasharray="5.3774,5.3774"/>
		<path class="st2" d="M100.8 12.2c-.2.6-.4 1.1-.6 1.7-.5-.1-1-.2-1.6-.2h-.3"/>
		<path d="M94.7 13.7h-.4c-2.6 0-4.9 1.7-5.8 4.1L87 22.4" fill="none" stroke="#ccc" stroke-width="1.415" stroke-miterlimit="10" stroke-dasharray="5.6179,5.6179"/>
		<path class="st2" d="M86.4 24.1l-.6 1.7-.7-1.7"/>
		<path d="M84 20.8l-1.1-3.1c-.8-2.5-3.2-4.1-5.8-4.1h-4.4c-1.3 0-2.5.4-3.5 1.1" fill="none" stroke="#ccc" stroke-width="1.415" stroke-miterlimit="10" stroke-dasharray="5.3113,5.3113"/>
		<path class="st2" d="M67.9 16c-.1.1-.2.2-.2.3-.3.4-.5.8-.7 1.3-.5-.4-.9-.8-1.4-1.2"/>
		<path d="M62.8 14.7c-2.5-1.2-5.2-1.8-8-1.7-5.8 0-10.7 2.1-14.3 6.2" fill="none" stroke="#ccc" stroke-width="1.415" stroke-miterlimit="10" stroke-dasharray="5.0047,5.0047"/>
		<path class="st2" d="M39.5 20.5c-.4.5-.7 1-1 1.5v-1.8"/>
		<path d="M38.5 16.6V6.9c0-3.4-2.7-6.1-6.1-6.1-.9 0-1.9.2-2.8.7l-4.3 2.1c-2.1 1-3.4 3.2-3.4 5.5v.4" fill="none" stroke="#ccc" stroke-width="1.415" stroke-miterlimit="10" stroke-dasharray="5.5283,5.5283"/>
		<path class="st2" d="M22 11.2V13c-.6 0-1.2-.1-1.8-.1"/>
		<path d="M16.6 13.2c-4.4.7-8.3 2.9-11 6.4-3.2 4-4.8 9.3-4.8 15.8 0 6.4 1.6 11.7 4.8 15.7 3.5 4.4 8.4 6.8 14.3 6.8 2.1 0 4.2-.4 6.3-1.1.7.2 1.4.4 2.1.4h4.3c3 0 5.6-2.2 6-5.2" fill="none" stroke="#ccc" stroke-width="1.415" stroke-miterlimit="10" stroke-dasharray="5.5425,5.5425"/>
		<path class="st2" d="M38.5 50.2v-1.8c.3.5.7 1 1 1.5"/>
		<path d="M41.9 52.8c3.4 3.3 7.8 5.1 12.9 5.1 5 0 9.5-1.7 13.4-5 1.9-1.6 2.7-4.2 1.9-6.7" fill="none" stroke="#ccc" stroke-width="1.415" stroke-miterlimit="10" stroke-dasharray="5.8774,5.8774"/>
		<path class="st2" d="M69.3 44.7l-.2-.2-1-1.2c.6-.1 1.2-.3 1.7-.6m2.6-2.5c.3-.5.5-1.1.7-1.7l.6 1.7"/>
		<path d="M75 43.8l3.4 9.4c.9 2.4 3.2 4 5.8 4h3c2.5 0 4.9-1.6 5.8-4l8-21.8" fill="none" stroke="#ccc" stroke-width="1.415" stroke-miterlimit="10" stroke-dasharray="5.8349,5.8349"/>
		<path class="st2" d="M101.6 29.6l.6-1.7c.3.5.7 1 1.1 1.5m3.4 3.1l1.5.9-.2.1-1.5.6"/>
		<path d="M103.2 35.3l-1.1.4c-3.1 1.1-4.7 4.5-3.7 7.6 1.4 4.4 4.3 8.3 8.2 10.8 3.8 2.5 8.3 3.8 13.3 3.8 5.8 0 10.6-1.6 14.4-4.8 2.1-1.7 3.8-4 4.9-6.5" fill="none" stroke="#ccc" stroke-width="1.415" stroke-miterlimit="10" stroke-dasharray="5.4717,5.4717"/>
		<path class="st2" d="M139.6 45c.2-.6.3-1.2.5-1.8l.5 1.8"/>
		<path d="M141.6 49l1 3.7c.7 2.7 3.2 4.5 5.9 4.5h5.6c1.7 0 3.3-.7 4.4-1.8" fill="none" stroke="#ccc" stroke-width="1.415" stroke-miterlimit="10" stroke-dasharray="6.2783,6.2783"/>
		<path class="st2" d="M159.7 53.7l.3-.9.2-.8.2.8.3.9"/>
		<path d="M163.1 56.3c1 .6 2.1.9 3.3.9h5.6c2.8 0 5.2-1.9 5.9-4.5l.5-2" fill="none" stroke="#ccc" stroke-width="1.415" stroke-miterlimit="10" stroke-dasharray="5.3821,5.3821"/>
		<path class="st2" d="M179 49l.5-1.8c.2.6.4 1.1.7 1.7"/>
		<path class="st6" d="M182.1 52c.5.6 1 1.1 1.6 1.7 3.2 2.8 7.3 4.2 12.1 4.2 2.2 0 4.4-.4 6.5-1.1.7.2 1.4.4 2.1.4h6.1c1.8 0 3.5-.8 4.7-2.2"/>
		<path class="st2" d="M216.1 53.4c.2-.6.4-1.2.4-1.8.4.5.8.9 1.3 1.3m1.7 1.5c.5.4 1 .7 1.5 1 0 .1-.1.1-.1.2-.2.5-.4.9-.5 1.5"/>
		<path d="M220.7 60.7c.1.4.3.8.6 1.1l3.2 4.9c1.1 1.7 3.1 2.8 5.1 2.8h.4c6.5-.5 11.3-2.2 14.8-5.3 3.7-3.3 5.7-8.4 5.7-15V19.9c0-3.4-2.7-6.1-6.1-6.1H238c-.5 0-1.1 0-1.6.2-1.9-.7-3.8-.9-5.8-.9-5.4 0-10 2-13.5 5.9" fill="none" stroke="#ccc" stroke-width="1.415" stroke-miterlimit="10" stroke-dasharray="5.5802,5.5802"/>
		<path class="st2" d="M116.7 38.2c-.4-.4-.7-.9-.9-1.5l.4.1c.5.2.9.3 1.3.5m2.6 1l.7.3c.2.1.5.2.7.4l.1.1c.1.1 0 0 0 .1-.5.2-1.1.3-1.7.2h-.2M132.5 24l-.2-.1c-.4-.3-.8-.6-1.4-.8l3.4-1.2.5 1.8m.4 1.2l.5 1.8-.6-.6c-.2-.2-.5-.4-.7-.7"/>
		<path class="st19" d="M130.9 23c.5.3.9.6 1.4.8.9.7 1.9 1.4 2.7 2.2l.6.6-1.3-4.8-3.4 1.2zm-13.4 15.9c1.3.7 2.8.9 4.2.4v-.1c0-.1 0-.1-.1-.1-.2-.1-.5-.3-.7-.4-1.1-.5-1.7-.8-2-.9-.6-.2-1.5-.6-2.7-1l-.4-.1c.3.9.9 1.6 1.7 2.2z"/>
		<path class="st2" d="M130.9 23c.5.3.9.6 1.4.8.9.7 1.9 1.4 2.7 2.2l.6.6-1.3-4.8-3.4 1.2zm-13.4 15.9c1.3.7 2.8.9 4.2.4v-.1c0-.1 0-.1-.1-.1-.2-.1-.5-.3-.7-.4-1.1-.5-1.7-.8-2-.9-.6-.2-1.5-.6-2.7-1l-.4-.1c.3.9.9 1.6 1.7 2.2z"/>
		<path class="st1" d="M238 19.9l7.7 7.1.1-9.1-10.2-.2 2.4 2.2z"/>
	</g>
	<g id="Calque_2" class="st0">
		<path class="st19" d="M230.5 13c-5.7 0-10.6 2.3-14.2 6.6-.6.7-1.1 1.4-1.5 2.2-1.2-2.6-3-4.7-5.2-6-1.7-1-3.6-1.8-5.6-2.3-1.8-.4-3.6-.6-5.5-.5-5 0-9.5 1.1-13.3 3.2-1.2-1.5-3-2.4-4.9-2.4h-6.2c-2.3 0-4.4 1.3-5.5 3.3-1-2-3.2-3.3-5.5-3.3h-5.9c-2.3 0-4.4 1.3-5.5 3.3-1-2-3.2-3.3-5.5-3.3H140c-.7 0-1.3.1-1.9.3-1.2-3.8-3.6-7-6.9-9.2-3.3-2.3-7.4-3.4-12.1-3.4-5.7 0-10.4 1.6-14.1 4.8-2.4 2-4.1 4.7-5 7.7-.5-.1-1-.2-1.6-.2h-4.3c-2.6 0-4.9 1.7-5.8 4.1l-2.8 8-2.9-8.1c-.8-2.5-3.2-4.1-5.8-4.1h-4.4c-2.5 0-4.8 1.6-5.7 3.9-3.3-3-7.5-4.6-12.2-4.6-5.8 0-10.8 2.2-14.5 6.5-.7.8-1.3 1.7-1.8 2.5V6.8c0-3.4-2.7-6.1-6.1-6.1-.9 0-1.9.2-2.8.7L25 3.5c-2.1 1-3.4 3.2-3.4 5.5v4h-2.1c-5.6 0-10.5 2.3-14 6.6-3.2 4-4.8 9.3-4.8 15.8 0 6.4 1.6 11.7 4.8 15.7 3.5 4.4 8.4 6.8 14.3 6.8 2.1 0 4.2-.4 6.3-1.1.7.2 1.4.4 2.1.4h4.3c3.4 0 6.1-2.7 6.1-6.1v-2.7c.5.8 1 1.7 1.7 2.5C43.9 55.6 49 58 55 58c5 0 9.5-1.7 13.4-5 2.6-2.1 3-5.9.8-8.6l-1-1.2c2.4-.4 4.3-2.3 4.9-4.7l5.3 14.7c.9 2.4 3.2 4 5.8 4h3c2.5 0 4.9-1.6 5.8-4l9.2-25.3c.4.7.9 1.3 1.5 1.9 1.3 1.4 2.8 2.6 4.5 3.5l-.2.1-6 2.2c-3.1 1.1-4.7 4.5-3.7 7.6 1.4 4.4 4.3 8.3 8.2 10.8 3.8 2.5 8.3 3.8 13.3 3.8 5.8 0 10.6-1.6 14.4-4.8 3.1-2.5 5.1-6 5.9-9.9l2.5 9.4c.7 2.7 3.2 4.5 5.9 4.5h5.6c2.7 0 5.1-1.8 5.9-4.4l.2-.8.2.8c.8 2.6 3.2 4.4 5.9 4.4h5.6c2.8 0 5.2-1.9 5.9-4.5l1.5-5.5c.8 2.5 2.3 4.8 4.3 6.5 3.2 2.8 7.3 4.2 12.1 4.2 2.2 0 4.4-.4 6.5-1.1.7.2 1.4.4 2.1.4h6.1c3.2 0 5.8-2.4 6.1-5.6 1.3 1.5 2.8 2.8 4.4 3.8 0 .1-.1.1-.1.2-1 1.9-.8 4.3.3 6.1l3.2 4.9c1.1 1.7 3.1 2.8 5.1 2.8h.4c6.5-.5 11.3-2.2 14.8-5.3 3.7-3.3 5.6-8.4 5.6-15l.1-17.5L230.5 13zM115.7 36.7l.4.1c1.2.4 2.1.8 2.7 1 .3.1 1 .4 2 .9.2.1.5.2.7.4l.1.1c.1.1 0 0 0 .1-1.4.5-2.9.3-4.2-.4-.7-.6-1.3-1.4-1.7-2.2zM135 26c-.8-.8-1.8-1.5-2.7-2.2-.4-.3-.8-.6-1.4-.8l3.4-1.1 1.3 4.8c-.1-.3-.3-.5-.6-.7z"/>
	</g>
	<g id="Calque_3" class="st0">
		<path d="M19.8 51.8c-4 0-7.2-1.5-9.4-4.4-2.4-3-3.5-6.9-3.5-12s1.1-9.1 3.4-12 5.5-4.3 9.4-4.3c3.1 0 5.9 1 8.3 2.9V9l4.3-2.1v44.2h-4.2v-2.7c-2.3 2.3-5.1 3.4-8.3 3.4zm.4-3.8c1.6 0 3.1-.4 4.5-1.3 1.4-.8 2.5-2.1 3.3-3.6V27.5c-1.9-3-4.5-4.5-7.8-4.5-2.9 0-5 1.1-6.6 3.3s-2.3 5.2-2.3 9.2c0 3.6.8 6.6 2.5 9 1.6 2.3 3.7 3.5 6.4 3.5zm34.6 3.8c-4.1 0-7.4-1.6-9.9-4.8-2.5-3.2-3.7-7.1-3.7-11.7 0-5.1 1.2-9.1 3.7-12s5.8-4.3 9.9-4.3c3.6 0 6.6 1.3 8.9 3.8s3.5 6.3 3.5 11.3c0 1.1 0 2.1-.1 3H45.7c.4 3.3 1.4 5.8 2.9 7.8 1.6 1.9 3.7 2.9 6.3 2.9 2.5 0 4.9-.8 7-2.5l2.3 2.9c-2.7 2.5-5.9 3.6-9.4 3.6zm-9.1-18.5h17.2c0-3.8-.8-6.5-2.5-8.1-1.6-1.6-3.4-2.4-5.5-2.4-2.6 0-4.8.9-6.4 2.6-1.8 1.9-2.7 4.5-2.8 7.9zm38.5 17.8L72.7 19.8h4.4l7.6 21.3c.1.2.2.6.3 1s.3.8.4 1.2.2.8.4 1.1c.1-.4.2-.8.4-1.1.1-.4.2-.8.4-1.2s.2-.8.3-1l7.4-21.3h4.3L87.1 51.1h-2.9z" fill="#67d0a1"/>
		<g class="st20">
			<path class="st22" d="M120 51.8c-3.9 0-7.3-1-10.1-3s-4.9-4.7-6-8.1l6.8-2.5c.9 2 2.2 3.6 3.9 4.8 1.7 1.2 3.6 1.8 5.8 1.8 2.3 0 4-.5 5.4-1.5 1.3-1 2-2.5 2-4.4 0-.8-.2-1.5-.6-2.2s-.8-1.2-1.3-1.7-1.2-.9-2.1-1.4-1.7-.8-2.4-1.1c-.7-.3-1.6-.6-2.9-1-1.7-.6-2.9-1-3.8-1.4-.9-.3-2-.8-3.3-1.6-1.4-.8-2.4-1.5-3.1-2.3s-1.4-1.8-1.9-3.1c-.6-1.3-.8-2.7-.8-4.2 0-3.3 1.3-6 3.8-8.2s5.9-3.3 10.3-3.3c3.6 0 6.6.8 8.9 2.5 2.4 1.7 4 3.9 4.8 6.7l-6.6 2.2c-1.3-2.9-3.8-4.4-7.6-4.4-1.9 0-3.4.4-4.5 1.2s-1.6 1.9-1.6 3.4c0 1 .4 1.8 1.3 2.6.8.8 1.7 1.4 2.7 1.7s2.4.9 4.2 1.5c1.2.5 2.2.8 2.8 1 .6.2 1.5.6 2.6 1.1s2 1 2.7 1.4 1.4 1 2.2 1.7c.8.8 1.5 1.5 1.9 2.3.4.8.8 1.7 1.2 2.8.3 1.1.5 2.3.5 3.5 0 4-1.4 7.2-4.2 9.4-3.1 2.7-6.7 3.8-11 3.8z"/>
		</g>
		<g class="st20">
			<path class="st22" d="M148.7 51.1l-8.6-31.3h7l4.1 17.3c.2.9.5 2.2.8 3.7.2-1.1.5-2.3.8-3.7l4.6-17.3h6.6l4.5 17.3c.3 1.4.6 2.5.8 3.7.3-1.5.5-2.7.8-3.7l4.1-17.3h7l-8.6 31.3h-6.4l-4.6-16.9c-.6-2.4-.9-3.8-1-4.3-.1.8-.5 2.3-1 4.3L155 51.1h-6.3z"/>
		</g>
		<g class="st20">
			<path class="st22" d="M204.2 51.1v-2.5c-2.1 2.2-4.9 3.3-8.3 3.3-3.3 0-6.1-.9-8.2-2.7-2.1-1.8-3.2-4.4-3.2-7.7 0-3.4 1.2-5.9 3.6-7.7 2.4-1.7 5.3-2.6 8.7-2.6 3 0 5.4.6 7.4 1.7v-1.7c0-2-.5-3.4-1.5-4.3s-2.5-1.4-4.6-1.4c-3.4 0-6.5 1-9.3 2.9l-2.2-5.8c3.4-2.3 7.5-3.4 12.3-3.4 1.7 0 3.1.1 4.3.4s2.5.8 3.9 1.6 2.4 2 3.1 3.7c.8 1.7 1.1 3.8 1.1 6.2V51l-7.1.1zm-6.9-5.6c2.7 0 5-1 7-3v-4.1c-1.8-.8-3.9-1.3-6.2-1.3-1.9 0-3.5.3-4.7 1s-1.8 1.7-1.8 3.2c0 1.3.5 2.3 1.5 3 .9.8 2.3 1.2 4.2 1.2zm33.4 17.8l-3.8-5.8c4.3-.3 7.3-.9 8.9-2s2.5-2.6 2.5-4.8V49c-1.7 1.9-4.1 2.8-7.1 2.8-3.8 0-6.9-1.4-9.3-4.2s-3.6-6.9-3.6-12.2c0-5 1.2-9.1 3.6-12 2.4-2.9 5.5-4.4 9.4-4.4 2.9 0 5.3.9 7 2.6v-1.9h7.2V48c0 5.2-1.1 8.9-3.3 11.3-2.3 2.3-6.2 3.6-11.5 4zm1.7-18.3c2.6 0 4.5-1 5.9-3.1V29c-1.4-2-3.4-3.1-5.9-3.1-2.3 0-4 .8-5.2 2.5s-1.8 4-1.8 7.1c0 2.9.6 5.3 1.8 7 1.2 1.6 3 2.5 5.2 2.5z"/>
		</g>
	</g>
	<g id="Calque_4" class="st0">
		<path class="st23" d="M230.7 13.1l20 18.5s-18.1-4.3-20.2.9l.2-19.4z"/>
	</g>
	<g id="Calque_4_-_copie" class="st0">
		<path class="st23" d="M230.7 13.1l20 18.5s-18.1-4.3-20.2.9l.2-19.4z"/>
	</g>
	<path d="M230.5 13c-5.7 0-10.6 2.3-14.2 6.6-.6.7-1.1 1.4-1.5 2.2-1.2-2.6-3-4.7-5.2-6-1.7-1-3.6-1.8-5.6-2.3-1.8-.4-3.6-.6-5.5-.5-5 0-9.5 1.1-13.3 3.2-1.2-1.5-3-2.4-4.9-2.4h-6.2c-2.3 0-4.4 1.3-5.5 3.3-1-2-3.2-3.3-5.5-3.3h-5.9c-2.3 0-4.4 1.3-5.5 3.3-1-2-3.2-3.3-5.5-3.3H140c-.7 0-1.3.1-1.9.3-1.2-3.8-3.6-7-6.9-9.2-3.3-2.3-7.4-3.4-12.1-3.4-5.7 0-10.4 1.6-14.1 4.8-2.4 2-4.1 4.7-5 7.7-.5-.1-1-.2-1.6-.2h-4.3c-2.6 0-4.9 1.7-5.8 4.1l-2.8 8-2.9-8.1c-.8-2.5-3.2-4.1-5.8-4.1h-4.4c-2.5 0-4.8 1.6-5.7 3.9-3.3-3-7.5-4.6-12.2-4.6-5.8 0-10.8 2.2-14.5 6.5-.7.8-1.3 1.7-1.8 2.5V6.8c0-3.4-2.7-6.1-6.1-6.1-.9 0-1.9.2-2.8.7L25 3.5c-2.1 1-3.4 3.2-3.4 5.5v4h-2.1c-5.6 0-10.5 2.3-14 6.6-3.2 4-4.8 9.3-4.8 15.8 0 6.4 1.6 11.7 4.8 15.7 3.5 4.4 8.4 6.8 14.3 6.8 2.1 0 4.2-.4 6.3-1.1.7.2 1.4.4 2.1.4h4.3c3.4 0 6.1-2.7 6.1-6.1v-2.7c.5.8 1 1.7 1.7 2.5C43.9 55.6 49 58 55 58c5 0 9.5-1.7 13.4-5 2.6-2.1 3-5.9.8-8.6l-1-1.2c2.4-.4 4.3-2.3 4.9-4.7l5.3 14.7c.9 2.4 3.2 4 5.8 4h3c2.5 0 4.9-1.6 5.8-4l9.2-25.3c.4.7.9 1.3 1.5 1.9 1.3 1.4 2.8 2.6 4.5 3.5l-.2.1-6 2.2c-3.1 1.1-4.7 4.5-3.7 7.6 1.4 4.4 4.3 8.3 8.2 10.8 3.8 2.5 8.3 3.8 13.3 3.8 5.8 0 10.6-1.6 14.4-4.8 3.1-2.5 5.1-6 5.9-9.9l2.5 9.4c.7 2.7 3.2 4.5 5.9 4.5h5.6c2.7 0 5.1-1.8 5.9-4.4l.2-.8.2.8c.8 2.6 3.2 4.4 5.9 4.4h5.6c2.8 0 5.2-1.9 5.9-4.5l1.5-5.5c.8 2.5 2.3 4.8 4.3 6.5 3.2 2.8 7.3 4.2 12.1 4.2 2.2 0 4.4-.4 6.5-1.1.7.2 1.4.4 2.1.4h6.1c3.2 0 5.8-2.4 6.1-5.6 1.3 1.5 2.8 2.8 4.4 3.8 0 .1-.1.1-.1.2-1 1.9-.8 4.3.3 6.1l3.2 4.9c1.1 1.7 3.1 2.8 5.1 2.8h.4c6.5-.5 11.3-2.2 14.8-5.3 3.7-3.3 5.6-8.4 5.6-15l.1-17.5L230.5 13zM115.7 36.7l.4.1c1.2.4 2.1.8 2.7 1 .3.1 1 .4 2 .9.2.1.5.2.7.4l.1.1c.1.1 0 0 0 .1-1.4.5-2.9.3-4.2-.4-.7-.6-1.3-1.4-1.7-2.2zM135 26c-.8-.8-1.8-1.5-2.7-2.2-.4-.3-.8-.6-1.4-.8l3.4-1.1 1.3 4.8c-.1-.3-.3-.5-.6-.7z" fill="#fff" id="Calque_2_-_copie"/>
	<g id="Calque_3_-_copie">
		<path d="M19.8 51.8c-4 0-7.2-1.5-9.4-4.4-2.4-3-3.5-6.9-3.5-12s1.1-9.1 3.4-12 5.5-4.3 9.4-4.3c3.1 0 5.9 1 8.3 2.9V9l4.3-2.1v44.2h-4.2v-2.7c-2.3 2.3-5.1 3.4-8.3 3.4zm.4-3.8c1.6 0 3.1-.4 4.5-1.3 1.4-.8 2.5-2.1 3.3-3.6V27.5c-1.9-3-4.5-4.5-7.8-4.5-2.9 0-5 1.1-6.6 3.3s-2.3 5.2-2.3 9.2c0 3.6.8 6.6 2.5 9 1.6 2.3 3.7 3.5 6.4 3.5zm34.6 3.8c-4.1 0-7.4-1.6-9.9-4.8-2.5-3.2-3.7-7.1-3.7-11.7 0-5.1 1.2-9.1 3.7-12s5.8-4.3 9.9-4.3c3.6 0 6.6 1.3 8.9 3.8s3.5 6.3 3.5 11.3c0 1.1 0 2.1-.1 3H45.7c.4 3.3 1.4 5.8 2.9 7.8 1.6 1.9 3.7 2.9 6.3 2.9 2.5 0 4.9-.8 7-2.5l2.3 2.9c-2.7 2.5-5.9 3.6-9.4 3.6zm-9.1-18.5h17.2c0-3.8-.8-6.5-2.5-8.1-1.6-1.6-3.4-2.4-5.5-2.4-2.6 0-4.8.9-6.4 2.6-1.8 1.9-2.7 4.5-2.8 7.9zm38.5 17.8L72.7 19.8h4.4l7.6 21.3c.1.2.2.6.3 1s.3.8.4 1.2.2.8.4 1.1c.1-.4.2-.8.4-1.1.1-.4.2-.8.4-1.2s.2-.8.3-1l7.4-21.3h4.3L87.1 51.1h-2.9z" fill="#30b776"/>
		<g class="st25">
			<path class="st22" d="M120 51.8c-3.9 0-7.3-1-10.1-3s-4.9-4.7-6-8.1l6.8-2.5c.9 2 2.2 3.6 3.9 4.8 1.7 1.2 3.6 1.8 5.8 1.8 2.3 0 4-.5 5.4-1.5 1.3-1 2-2.5 2-4.4 0-.8-.2-1.5-.6-2.2s-.8-1.2-1.3-1.7-1.2-.9-2.1-1.4-1.7-.8-2.4-1.1c-.7-.3-1.6-.6-2.9-1-1.7-.6-2.9-1-3.8-1.4-.9-.3-2-.8-3.3-1.6-1.4-.8-2.4-1.5-3.1-2.3s-1.4-1.8-1.9-3.1c-.6-1.3-.8-2.7-.8-4.2 0-3.3 1.3-6 3.8-8.2s5.9-3.3 10.3-3.3c3.6 0 6.6.8 8.9 2.5 2.4 1.7 4 3.9 4.8 6.7l-6.6 2.2c-1.3-2.9-3.8-4.4-7.6-4.4-1.9 0-3.4.4-4.5 1.2s-1.6 1.9-1.6 3.4c0 1 .4 1.8 1.3 2.6.8.8 1.7 1.4 2.7 1.7s2.4.9 4.2 1.5c1.2.5 2.2.8 2.8 1 .6.2 1.5.6 2.6 1.1s2 1 2.7 1.4 1.4 1 2.2 1.7c.8.8 1.5 1.5 1.9 2.3.4.8.8 1.7 1.2 2.8.3 1.1.5 2.3.5 3.5 0 4-1.4 7.2-4.2 9.4-3.1 2.7-6.7 3.8-11 3.8z"/>
		</g>
		<g class="st25">
			<path class="st22" d="M148.7 51.1l-8.6-31.3h7l4.1 17.3c.2.9.5 2.2.8 3.7.2-1.1.5-2.3.8-3.7l4.6-17.3h6.6l4.5 17.3c.3 1.4.6 2.5.8 3.7.3-1.5.5-2.7.8-3.7l4.1-17.3h7l-8.6 31.3h-6.4l-4.6-16.9c-.6-2.4-.9-3.8-1-4.3-.1.8-.5 2.3-1 4.3L155 51.1h-6.3z"/>
		</g>
		<g class="st25">
			<path class="st22" d="M204.2 51.1v-2.5c-2.1 2.2-4.9 3.3-8.3 3.3-3.3 0-6.1-.9-8.2-2.7-2.1-1.8-3.2-4.4-3.2-7.7 0-3.4 1.2-5.9 3.6-7.7 2.4-1.7 5.3-2.6 8.7-2.6 3 0 5.4.6 7.4 1.7v-1.7c0-2-.5-3.4-1.5-4.3s-2.5-1.4-4.6-1.4c-3.4 0-6.5 1-9.3 2.9l-2.2-5.8c3.4-2.3 7.5-3.4 12.3-3.4 1.7 0 3.1.1 4.3.4s2.5.8 3.9 1.6 2.4 2 3.1 3.7c.8 1.7 1.1 3.8 1.1 6.2V51l-7.1.1zm-6.9-5.6c2.7 0 5-1 7-3v-4.1c-1.8-.8-3.9-1.3-6.2-1.3-1.9 0-3.5.3-4.7 1s-1.8 1.7-1.8 3.2c0 1.3.5 2.3 1.5 3 .9.8 2.3 1.2 4.2 1.2zm48.2-16.1V48c0 5.2-1.1 8.9-3.3 11.3-2.3 2.3-6.2 3.6-11.5 4l-3.8-5.8c4.3-.3 7.3-.9 8.9-2s2.5-2.6 2.5-4.8V49c-1.7 1.9-4.1 2.8-7.1 2.8-3.8 0-6.9-1.4-9.3-4.2s-3.6-6.9-3.6-12.2c0-5 1.2-9.1 3.6-12 2.4-2.9 5.5-4.4 9.4-4.4 2.9 0 5.3.9 7 2.6l7.2 7.8zM232.4 45c2.6 0 4.5-1 5.9-3.1V29c-1.4-2-3.4-3.1-5.9-3.1-2.3 0-4 .8-5.2 2.5s-1.8 4-1.8 7.1c0 2.9.6 5.3 1.8 7 1.2 1.6 3 2.5 5.2 2.5z"/>
		</g>
	</g>
	<g id="Calque_8">
		<linearGradient id="SVGID_1_" gradientUnits="userSpaceOnUse" x1="229.9167" y1="33.1333" x2="241.075" y2="21.975">
			<stop offset="0" stop-color="#969696"/>
			<stop offset=".5602" stop-color="#ececec"/>
			<stop offset=".6564" stop-color="#e5e5e5"/>
			<stop offset=".7932" stop-color="#d3d3d3"/>
			<stop offset=".9536" stop-color="#b4b4b4"/>
			<stop offset="1" stop-color="#aaa"/>
		</linearGradient>
		<path d="M250.7 31.6l-20-18.5s4 6.1 0 20.8c0 0 11-6.6 20-2.3z" fill="url(#SVGID_1_)"/>
	</g>
</svg>
