<?xml version="1.0" encoding="utf-8"?>
<!-- Generator: Adobe Illustrator 23.1.1, SVG Export Plug-In . SVG Version: 6.00 Build 0)  -->
<svg version="1.1" id="Layer_1" xmlns="http://www.w3.org/2000/svg" xmlns:xlink="http://www.w3.org/1999/xlink" x="0px" y="0px"
	 viewBox="0 0 251.1 70.2" style="enable-background:new 0 0 251.1 70.2;" xml:space="preserve">
<style type="text/css">
	.st0{fill:#FFFFFF;}
	.st1{fill:none;stroke:#CCCCCC;stroke-width:1.4151;stroke-miterlimit:10;}
	.st2{fill:none;stroke:#CCCCCC;stroke-width:1.4151;stroke-miterlimit:10;stroke-dasharray:5.0991,5.0991;}
	.st3{fill:none;stroke:#CCCCCC;stroke-width:1.4151;stroke-miterlimit:10;stroke-dasharray:4.6085,4.6085;}
	.st4{fill:none;stroke:#CCCCCC;stroke-width:1.4151;stroke-miterlimit:10;stroke-dasharray:4.816,4.816;}
	.st5{fill:none;stroke:#CCCCCC;stroke-width:1.4151;stroke-miterlimit:10;stroke-dasharray:5.7783,5.7783;}
	.st6{fill:none;stroke:#CCCCCC;stroke-width:1.4151;stroke-miterlimit:10;stroke-dasharray:5.3774,5.3774;}
	.st7{fill:none;stroke:#CCCCCC;stroke-width:1.4151;stroke-miterlimit:10;stroke-dasharray:5.6179,5.6179;}
	.st8{fill:none;stroke:#CCCCCC;stroke-width:1.4151;stroke-miterlimit:10;stroke-dasharray:5.3113,5.3113;}
	.st9{fill:none;stroke:#CCCCCC;stroke-width:1.4151;stroke-miterlimit:10;stroke-dasharray:5.0047,5.0047;}
	.st10{fill:none;stroke:#CCCCCC;stroke-width:1.4151;stroke-miterlimit:10;stroke-dasharray:5.5283,5.5283;}
	.st11{fill:none;stroke:#CCCCCC;stroke-width:1.4151;stroke-miterlimit:10;stroke-dasharray:5.5425,5.5425;}
	.st12{fill:none;stroke:#CCCCCC;stroke-width:1.4151;stroke-miterlimit:10;stroke-dasharray:5.8774,5.8774;}
	.st13{fill:none;stroke:#CCCCCC;stroke-width:1.4151;stroke-miterlimit:10;stroke-dasharray:5.8349,5.8349;}
	.st14{fill:none;stroke:#CCCCCC;stroke-width:1.4151;stroke-miterlimit:10;stroke-dasharray:5.4717,5.4717;}
	.st15{fill:none;stroke:#CCCCCC;stroke-width:1.4151;stroke-miterlimit:10;stroke-dasharray:6.2783,6.2783;}
	.st16{fill:none;stroke:#CCCCCC;stroke-width:1.4151;stroke-miterlimit:10;stroke-dasharray:5.3821,5.3821;}
	.st17{fill:none;stroke:#CCCCCC;stroke-width:1.4151;stroke-miterlimit:10;stroke-dasharray:5.5802,5.5802;}
	.st18{fill:#FFFFFF;stroke:#CCCCCC;stroke-width:1.4151;stroke-miterlimit:10;}
	.st19{enable-background:new    ;}
	.st20{fill:#67D0A1;}
	.st21{fill:#2868CB;}
	.st22{fill:#808080;}
</style>
<title>devswag</title>
<path class="st0" d="M244.3,13.7h-6.4c-0.5,0-1.1,0-1.6,0.2c-1.9-0.7-3.8-0.9-5.8-0.9c-5.7,0-10.6,2.3-14.2,6.6
	c-0.6,0.7-1.1,1.4-1.5,2.2c-1.2-2.6-3-4.7-5.2-6c-1.7-1-3.6-1.8-5.6-2.3c-1.8-0.4-3.6-0.6-5.5-0.5c-5,0-9.5,1.1-13.3,3.2l0,0
	c-1.2-1.5-3-2.4-4.9-2.4h-6.2c-2.3,0-4.4,1.3-5.5,3.3c-1-2-3.2-3.3-5.5-3.3h-5.9c-2.3,0-4.4,1.3-5.5,3.3c-1-2-3.2-3.3-5.5-3.3h-6.2
	c-0.7,0-1.3,0.1-1.9,0.3c-1.2-3.8-3.6-7-6.9-9.2c-3.3-2.3-7.4-3.4-12.1-3.4c-5.7,0-10.4,1.6-14.1,4.8c-2.4,2-4.1,4.7-5,7.7
	c-0.5-0.1-1-0.2-1.6-0.2h-4.3c-2.6,0-4.9,1.7-5.8,4.1l-2.8,8l-2.9-8.1c-0.8-2.5-3.2-4.1-5.8-4.1h-4.4c-2.5,0-4.8,1.6-5.7,3.9
	c-3.3-3-7.5-4.6-12.2-4.6c-5.8,0-10.8,2.2-14.5,6.5c-0.7,0.8-1.3,1.7-1.8,2.5V6.8c0-3.4-2.7-6.1-6.1-6.1c-0.9,0-1.9,0.2-2.8,0.7
	l-4.3,2.1c-2.1,1-3.4,3.2-3.4,5.5V13c-0.6,0-1.3,0-2.1,0C13.9,13,9,15.3,5.5,19.6c-3.2,4-4.8,9.3-4.8,15.8c0,6.4,1.6,11.7,4.8,15.7
	c3.5,4.4,8.4,6.8,14.3,6.8c2.1,0,4.2-0.4,6.3-1.1c0.7,0.2,1.4,0.4,2.1,0.4h4.3c3.4,0,6.1-2.7,6.1-6.1v-2.7c0.5,0.8,1,1.7,1.7,2.5
	c3.6,4.7,8.7,7.1,14.7,7.1c5,0,9.5-1.7,13.4-5c2.6-2.1,3-5.9,0.8-8.6l-1-1.2c2.4-0.4,4.3-2.3,4.9-4.7l5.3,14.7c0.9,2.4,3.2,4,5.8,4
	h3c2.5,0,4.9-1.6,5.8-4l9.2-25.3c0.4,0.7,0.9,1.3,1.5,1.9c1.3,1.4,2.8,2.6,4.5,3.5l0,0l-0.2,0.1l-6,2.2c-3.1,1.1-4.7,4.5-3.7,7.6
	c1.4,4.4,4.3,8.3,8.2,10.8c3.8,2.5,8.3,3.8,13.3,3.8c5.8,0,10.6-1.6,14.4-4.8c3.1-2.5,5.1-6,5.9-9.9l2.5,9.4
	c0.7,2.7,3.2,4.5,5.9,4.5h5.6c2.7,0,5.1-1.8,5.9-4.4l0.2-0.8l0.2,0.8c0.8,2.6,3.2,4.4,5.9,4.4h5.6c2.8,0,5.2-1.9,5.9-4.5l1.5-5.5
	c0.8,2.5,2.3,4.8,4.3,6.5c3.2,2.8,7.3,4.2,12.1,4.2c2.2,0,4.4-0.4,6.5-1.1c0.7,0.2,1.4,0.4,2.1,0.4h6.1c3.2,0,5.8-2.4,6.1-5.6
	c1.3,1.5,2.8,2.8,4.4,3.8c0,0.1-0.1,0.1-0.1,0.2c-1,1.9-0.8,4.3,0.3,6.1l3.2,4.9c1.1,1.7,3.1,2.8,5.1,2.8c0.1,0,0.3,0,0.4,0
	c6.5-0.5,11.3-2.2,14.8-5.3c3.7-3.3,5.6-8.4,5.6-15V19.9C250.4,16.5,247.7,13.7,244.3,13.7z M115.7,36.7l0.4,0.1
	c1.2,0.4,2.1,0.8,2.7,1c0.3,0.1,1,0.4,2,0.9c0.2,0.1,0.5,0.2,0.7,0.4c0,0,0,0,0.1,0.1s0,0,0,0.1c-1.4,0.5-2.9,0.3-4.2-0.4
	C116.7,38.3,116.1,37.5,115.7,36.7L115.7,36.7z M135,26c-0.8-0.8-1.8-1.5-2.7-2.2c-0.4-0.3-0.8-0.6-1.4-0.8l3.4-1.1l1.3,4.8
	C135.5,26.4,135.3,26.2,135,26z"/>
<path class="st1" d="M215.8,20.2c-0.4,0.5-0.7,1-1,1.5c-0.2-0.6-0.6-1.1-0.8-1.6"/>
<path class="st2" d="M211.9,17.5c-0.7-0.7-1.5-1.3-2.3-1.8c-1.7-1-3.6-1.8-5.6-2.3c-1.8-0.4-3.6-0.6-5.5-0.5
	c-3.4,0-6.9,0.5-10.1,1.7"/>
<path class="st1" d="M186.9,15.3c-0.6,0.2-1.1,0.5-1.7,0.8l0,0c-0.4-0.5-0.8-0.9-1.3-1.2"/>
<path class="st3" d="M181.2,13.8c-0.3,0-0.6,0-0.8,0h-6.2c-1.1,0-2.3,0.3-3.2,0.9"/>
<path class="st1" d="M169.7,15.6c-0.4,0.4-0.8,0.9-1.1,1.5c-0.3-0.6-0.7-1-1.1-1.5"/>
<path class="st4" d="M165,14c-0.6-0.1-1.1-0.2-1.7-0.2h-5.9c-1.1,0-2.2,0.3-3.2,0.8"/>
<path class="st1" d="M153,15.6c-0.4,0.4-0.8,0.9-1.1,1.5c-0.3-0.6-0.7-1-1.1-1.5"/>
<path class="st5" d="M147.5,13.8c-0.4,0-0.8-0.1-1.1-0.1h-4.5"/>
<path class="st1" d="M140,13.7c-0.6,0-1.2,0.1-1.8,0.3c-0.2-0.6-0.4-1.2-0.7-1.7"/>
<path class="st6" d="M135.9,9.2c-1.2-1.7-2.8-3.3-4.6-4.5c-3.3-2.3-7.4-3.4-12.1-3.4c-5.7,0-10.4,1.6-14.1,4.8
	c-1.5,1.3-2.7,2.8-3.6,4.4"/>
<path class="st1" d="M100.8,12.2c-0.2,0.6-0.4,1.1-0.6,1.7c-0.5-0.1-1-0.2-1.6-0.2h-0.3"/>
<path class="st7" d="M94.7,13.7h-0.4c-2.6,0-4.9,1.7-5.8,4.1L87,22.4"/>
<polyline class="st1" points="86.4,24.1 85.8,25.8 85.1,24.1 "/>
<path class="st8" d="M84,20.8l-1.1-3.1c-0.8-2.5-3.2-4.1-5.8-4.1h-4.4c-1.3,0-2.5,0.4-3.5,1.1"/>
<path class="st1" d="M67.9,16c-0.1,0.1-0.2,0.2-0.2,0.3c-0.3,0.4-0.5,0.8-0.7,1.3c-0.5-0.4-0.9-0.8-1.4-1.2"/>
<path class="st9" d="M62.8,14.7c-2.5-1.2-5.2-1.8-8-1.7c-5.8,0-10.7,2.1-14.3,6.2"/>
<path class="st1" d="M39.5,20.5c-0.4,0.5-0.7,1-1,1.5v-1.8"/>
<path class="st10" d="M38.5,16.6V6.9c0-3.4-2.7-6.1-6.1-6.1c-0.9,0-1.9,0.2-2.8,0.7l-4.3,2.1c-2.1,1-3.4,3.2-3.4,5.5v0.4"/>
<path class="st1" d="M22,11.2v1.8c-0.6,0-1.2-0.1-1.8-0.1"/>
<path class="st11" d="M16.6,13.2c-4.4,0.7-8.3,2.9-11,6.4c-3.2,4-4.8,9.3-4.8,15.8c0,6.4,1.6,11.7,4.8,15.7
	c3.5,4.4,8.4,6.8,14.3,6.8c2.1,0,4.2-0.4,6.3-1.1c0.7,0.2,1.4,0.4,2.1,0.4h4.3c3,0,5.6-2.2,6-5.2"/>
<path class="st1" d="M38.5,50.2v-1.8c0.3,0.5,0.7,1,1,1.5"/>
<path class="st12" d="M41.9,52.8c3.4,3.3,7.8,5.1,12.9,5.1c5,0,9.5-1.7,13.4-5c1.9-1.6,2.7-4.2,1.9-6.7"/>
<path class="st1" d="M69.3,44.7l-0.2-0.2l-1-1.2c0.6-0.1,1.2-0.3,1.7-0.6"/>
<path class="st1" d="M72.4,40.2c0.3-0.5,0.5-1.1,0.7-1.7l0.6,1.7"/>
<path class="st13" d="M75,43.8l3.4,9.4c0.9,2.4,3.2,4,5.8,4h3c2.5,0,4.9-1.6,5.8-4l8-21.8"/>
<path class="st1" d="M101.6,29.6l0.6-1.7c0.3,0.5,0.7,1,1.1,1.5"/>
<path class="st1" d="M106.7,32.5c0.5,0.3,1,0.6,1.5,0.9l0,0l-0.2,0.1l-1.5,0.6"/>
<path class="st14" d="M103.2,35.3l-1.1,0.4c-3.1,1.1-4.7,4.5-3.7,7.6c1.4,4.4,4.3,8.3,8.2,10.8c3.8,2.5,8.3,3.8,13.3,3.8
	c5.8,0,10.6-1.6,14.4-4.8c2.1-1.7,3.8-4,4.9-6.5"/>
<path class="st1" d="M139.6,45c0.2-0.6,0.3-1.2,0.5-1.8l0.5,1.8"/>
<path class="st15" d="M141.6,49l1,3.7c0.7,2.7,3.2,4.5,5.9,4.5h5.6c1.7,0,3.3-0.7,4.4-1.8"/>
<path class="st1" d="M159.7,53.7c0.1-0.3,0.2-0.6,0.3-0.9l0.2-0.8l0.2,0.8c0.1,0.3,0.2,0.6,0.3,0.9"/>
<path class="st16" d="M163.1,56.3c1,0.6,2.1,0.9,3.3,0.9h5.6c2.8,0,5.2-1.9,5.9-4.5l0.5-2"/>
<path class="st1" d="M179,49l0.5-1.8c0.2,0.6,0.4,1.1,0.7,1.7"/>
<path class="st5" d="M182.1,52c0.5,0.6,1,1.1,1.6,1.7c3.2,2.8,7.3,4.2,12.1,4.2c2.2,0,4.4-0.4,6.5-1.1c0.7,0.2,1.4,0.4,2.1,0.4h6.1
	c1.8,0,3.5-0.8,4.7-2.2"/>
<path class="st1" d="M216.1,53.4c0.2-0.6,0.4-1.2,0.4-1.8c0.4,0.5,0.8,0.9,1.3,1.3"/>
<path class="st1" d="M219.5,54.4c0.5,0.4,1,0.7,1.5,1c0,0.1-0.1,0.1-0.1,0.2c-0.2,0.5-0.4,0.9-0.5,1.5"/>
<path class="st17" d="M220.7,60.7c0.1,0.4,0.3,0.8,0.6,1.1l3.2,4.9c1.1,1.7,3.1,2.8,5.1,2.8c0.1,0,0.3,0,0.4,0
	c6.5-0.5,11.3-2.2,14.8-5.3c3.7-3.3,5.7-8.4,5.7-15V19.9c0-3.4-2.7-6.1-6.1-6.1h-6.4c-0.5,0-1.1,0-1.6,0.2c-1.9-0.7-3.8-0.9-5.8-0.9
	c-5.4,0-10,2-13.5,5.9"/>
<path class="st1" d="M116.7,38.2c-0.4-0.4-0.7-0.9-0.9-1.5l0,0l0.4,0.1c0.5,0.2,0.9,0.3,1.3,0.5"/>
<path class="st1" d="M120.1,38.3l0.7,0.3c0.2,0.1,0.5,0.2,0.7,0.4c0,0,0,0,0.1,0.1s0,0,0,0.1c-0.5,0.2-1.1,0.3-1.7,0.2h-0.2"/>
<path class="st1" d="M132.5,24l-0.2-0.1c-0.4-0.3-0.8-0.6-1.4-0.8l3.4-1.2l0.5,1.8"/>
<path class="st1" d="M135.2,24.9l0.5,1.8c-0.2-0.2-0.4-0.4-0.6-0.6c-0.2-0.2-0.5-0.4-0.7-0.7"/>
<path class="st18" d="M130.9,23c0.5,0.3,0.9,0.6,1.4,0.8c0.9,0.7,1.9,1.4,2.7,2.2c0.2,0.2,0.4,0.4,0.6,0.6l-1.3-4.8L130.9,23z"/>
<path class="st18" d="M117.5,38.9c1.3,0.7,2.8,0.9,4.2,0.4c0,0,0,0,0-0.1s0-0.1-0.1-0.1c-0.2-0.1-0.5-0.3-0.7-0.4
	c-1.1-0.5-1.7-0.8-2-0.9c-0.6-0.2-1.5-0.6-2.7-1l-0.4-0.1l0,0C116.1,37.6,116.7,38.3,117.5,38.9z"/>
<g class="st19">
	<path class="st20" d="M19.8,51.8c-4,0-7.2-1.5-9.4-4.4c-2.4-3-3.5-6.9-3.5-12c0-5.1,1.1-9.1,3.4-12s5.5-4.3,9.4-4.3
		c3.1,0,5.9,1,8.3,2.9v-13l4.3-2.1v44.2h-4.2v-2.7C25.8,50.7,23,51.8,19.8,51.8z M20.2,48c1.6,0,3.1-0.4,4.5-1.3
		c1.4-0.8,2.5-2.1,3.3-3.6V27.5c-1.9-3-4.5-4.5-7.8-4.5c-2.9,0-5,1.1-6.6,3.3s-2.3,5.2-2.3,9.2c0,3.6,0.8,6.6,2.5,9
		C15.4,46.8,17.5,48,20.2,48z"/>
	<path class="st20" d="M54.8,51.8c-4.1,0-7.4-1.6-9.9-4.8c-2.5-3.2-3.7-7.1-3.7-11.7c0-5.1,1.2-9.1,3.7-12c2.5-2.9,5.8-4.3,9.9-4.3
		c3.6,0,6.6,1.3,8.9,3.8c2.3,2.5,3.5,6.3,3.5,11.3c0,1.1,0,2.1-0.1,3H45.7c0.4,3.3,1.4,5.8,2.9,7.8c1.6,1.9,3.7,2.9,6.3,2.9
		c2.5,0,4.9-0.8,7-2.5l2.3,2.9C61.5,50.7,58.3,51.8,54.8,51.8z M45.7,33.3h17.2c0-3.8-0.8-6.5-2.5-8.1c-1.6-1.6-3.4-2.4-5.5-2.4
		c-2.6,0-4.8,0.9-6.4,2.6C46.7,27.3,45.8,29.9,45.7,33.3z"/>
	<path class="st20" d="M84.2,51.1L72.7,19.8h4.4l7.6,21.3c0.1,0.2,0.2,0.6,0.3,1s0.3,0.8,0.4,1.2c0.1,0.4,0.2,0.8,0.4,1.1
		c0.1-0.4,0.2-0.8,0.4-1.1c0.1-0.4,0.2-0.8,0.4-1.2s0.2-0.8,0.3-1l7.4-21.3h4.3L87.1,51.1H84.2z"/>
</g>
<g>
	<g class="st19">
		<path class="st21" d="M120,51.8c-3.9,0-7.3-1-10.1-3c-2.8-2-4.9-4.7-6-8.1l6.8-2.5c0.9,2,2.2,3.6,3.9,4.8c1.7,1.2,3.6,1.8,5.8,1.8
			c2.3,0,4-0.5,5.4-1.5c1.3-1,2-2.5,2-4.4c0-0.8-0.2-1.5-0.6-2.2c-0.4-0.7-0.8-1.2-1.3-1.7c-0.5-0.5-1.2-0.9-2.1-1.4
			c-0.9-0.5-1.7-0.8-2.4-1.1c-0.7-0.3-1.6-0.6-2.9-1c-1.7-0.6-2.9-1-3.8-1.4c-0.9-0.3-2-0.8-3.3-1.6c-1.4-0.8-2.4-1.5-3.1-2.3
			c-0.7-0.8-1.4-1.8-1.9-3.1c-0.6-1.3-0.8-2.7-0.8-4.2c0-3.3,1.3-6,3.8-8.2c2.5-2.2,5.9-3.3,10.3-3.3c3.6,0,6.6,0.8,8.9,2.5
			c2.4,1.7,4,3.9,4.8,6.7l-6.6,2.2c-1.3-2.9-3.8-4.4-7.6-4.4c-1.9,0-3.4,0.4-4.5,1.2c-1.1,0.8-1.6,1.9-1.6,3.4c0,1,0.4,1.8,1.3,2.6
			c0.8,0.8,1.7,1.4,2.7,1.7s2.4,0.9,4.2,1.5c1.2,0.5,2.2,0.8,2.8,1c0.6,0.2,1.5,0.6,2.6,1.1c1.1,0.5,2,1,2.7,1.4
			c0.7,0.4,1.4,1,2.2,1.7c0.8,0.8,1.5,1.5,1.9,2.3s0.8,1.7,1.2,2.8c0.3,1.1,0.5,2.3,0.5,3.5c0,4-1.4,7.2-4.2,9.4
			C127.9,50.7,124.3,51.8,120,51.8z"/>
	</g>
	<g class="st19">
		<path class="st21" d="M148.7,51.1l-8.6-31.3h7l4.1,17.3c0.2,0.9,0.5,2.2,0.8,3.7c0.2-1.1,0.5-2.3,0.8-3.7l4.6-17.3h6.6l4.5,17.3
			c0.3,1.4,0.6,2.5,0.8,3.7c0.3-1.5,0.5-2.7,0.8-3.7l4.1-17.3h7l-8.6,31.3h-6.4l-4.6-16.9c-0.6-2.4-0.9-3.8-1-4.3
			c-0.1,0.8-0.5,2.3-1,4.3L155,51.1H148.7z"/>
	</g>
	<g class="st19">
		<path class="st21" d="M204.2,51.1v-2.5c-2.1,2.2-4.9,3.3-8.3,3.3c-3.3,0-6.1-0.9-8.2-2.7c-2.1-1.8-3.2-4.4-3.2-7.7
			c0-3.4,1.2-5.9,3.6-7.7c2.4-1.7,5.3-2.6,8.7-2.6c3,0,5.4,0.6,7.4,1.7v-1.7c0-2-0.5-3.4-1.5-4.3s-2.5-1.4-4.6-1.4
			c-3.4,0-6.5,1-9.3,2.9l-2.2-5.8c3.4-2.3,7.5-3.4,12.3-3.4c1.7,0,3.1,0.1,4.3,0.4c1.2,0.3,2.5,0.8,3.9,1.6s2.4,2,3.1,3.7
			c0.8,1.7,1.1,3.8,1.1,6.2V51L204.2,51.1L204.2,51.1z M197.3,45.5c2.7,0,5-1,7-3v-4.1c-1.8-0.8-3.9-1.3-6.2-1.3
			c-1.9,0-3.5,0.3-4.7,1s-1.8,1.7-1.8,3.2c0,1.3,0.5,2.3,1.5,3C194,45.1,195.4,45.5,197.3,45.5z"/>
		<path class="st21" d="M230.7,63.3l-3.8-5.8c4.3-0.3,7.3-0.9,8.9-2s2.5-2.6,2.5-4.8V49c-1.7,1.9-4.1,2.8-7.1,2.8
			c-3.8,0-6.9-1.4-9.3-4.2s-3.6-6.9-3.6-12.2c0-5,1.2-9.1,3.6-12c2.4-2.9,5.5-4.4,9.4-4.4c2.9,0,5.3,0.9,7,2.6v-1.9h7.2V48
			c0,5.2-1.1,8.9-3.3,11.3C239.9,61.6,236,62.9,230.7,63.3z M232.4,45c2.6,0,4.5-1,5.9-3.1V29c-1.4-2-3.4-3.1-5.9-3.1
			c-2.3,0-4,0.8-5.2,2.5c-1.2,1.7-1.8,4-1.8,7.1c0,2.9,0.6,5.3,1.8,7C228.4,44.1,230.2,45,232.4,45z"/>
	</g>
</g>
<path class="st1" d="M230.5,13c-5.7,0-10.6,2.3-14.2,6.6c-0.6,0.7-1.1,1.4-1.5,2.2c-1.2-2.6-3-4.7-5.2-6c-1.7-1-3.6-1.8-5.6-2.3
	c-1.8-0.4-3.6-0.6-5.5-0.5c-5,0-9.5,1.1-13.3,3.2l0,0c-1.2-1.5-3-2.4-4.9-2.4h-6.2c-2.3,0-4.4,1.3-5.5,3.3c-1-2-3.2-3.3-5.5-3.3
	h-5.9c-2.3,0-4.4,1.3-5.5,3.3c-1-2-3.2-3.3-5.5-3.3h-6.2c-0.7,0-1.3,0.1-1.9,0.3c-1.2-3.8-3.6-7-6.9-9.2c-3.3-2.3-7.4-3.4-12.1-3.4
	c-5.7,0-10.4,1.6-14.1,4.8c-2.4,2-4.1,4.7-5,7.7c-0.5-0.1-1-0.2-1.6-0.2h-4.3c-2.6,0-4.9,1.7-5.8,4.1l-2.8,8l-2.9-8.1
	c-0.8-2.5-3.2-4.1-5.8-4.1h-4.4c-2.5,0-4.8,1.6-5.7,3.9c-3.3-3-7.5-4.6-12.2-4.6c-5.8,0-10.8,2.2-14.5,6.5c-0.7,0.8-1.3,1.7-1.8,2.5
	V6.8c0-3.4-2.7-6.1-6.1-6.1c-0.9,0-1.9,0.2-2.8,0.7l-4.3,2.1c-2.1,1-3.4,3.2-3.4,5.5V13c-0.6,0-1.3,0-2.1,0C13.9,13,9,15.3,5.5,19.6
	c-3.2,4-4.8,9.3-4.8,15.8c0,6.4,1.6,11.7,4.8,15.7c3.5,4.4,8.4,6.8,14.3,6.8c2.1,0,4.2-0.4,6.3-1.1c0.7,0.2,1.4,0.4,2.1,0.4h4.3
	c3.4,0,6.1-2.7,6.1-6.1v-2.7c0.5,0.8,1,1.7,1.7,2.5c3.6,4.7,8.7,7.1,14.7,7.1c5,0,9.5-1.7,13.4-5c2.6-2.1,3-5.9,0.8-8.6l-1-1.2
	c2.4-0.4,4.3-2.3,4.9-4.7l5.3,14.7c0.9,2.4,3.2,4,5.8,4h3c2.5,0,4.9-1.6,5.8-4l9.2-25.3c0.4,0.7,0.9,1.3,1.5,1.9
	c1.3,1.4,2.8,2.6,4.5,3.5l0,0l-0.2,0.1l-6,2.2c-3.1,1.1-4.7,4.5-3.7,7.6c1.4,4.4,4.3,8.3,8.2,10.8c3.8,2.5,8.3,3.8,13.3,3.8
	c5.8,0,10.6-1.6,14.4-4.8c3.1-2.5,5.1-6,5.9-9.9l2.5,9.4c0.7,2.7,3.2,4.5,5.9,4.5h5.6c2.7,0,5.1-1.8,5.9-4.4l0.2-0.8l0.2,0.8
	c0.8,2.6,3.2,4.4,5.9,4.4h5.6c2.8,0,5.2-1.9,5.9-4.5l1.5-5.5c0.8,2.5,2.3,4.8,4.3,6.5c3.2,2.8,7.3,4.2,12.1,4.2
	c2.2,0,4.4-0.4,6.5-1.1c0.7,0.2,1.4,0.4,2.1,0.4h6.1c3.2,0,5.8-2.4,6.1-5.6c1.3,1.5,2.8,2.8,4.4,3.8c0,0.1-0.1,0.1-0.1,0.2
	c-1,1.9-0.8,4.3,0.3,6.1l3.2,4.9c1.1,1.7,3.1,2.8,5.1,2.8c0.1,0,0.3,0,0.4,0c6.5-0.5,11.3-2.2,14.8-5.3c3.7-3.3,5.6-8.4,5.6-15
	l0.1-17.5 M115.7,36.7l0.4,0.1c1.2,0.4,2.1,0.8,2.7,1c0.3,0.1,1,0.4,2,0.9c0.2,0.1,0.5,0.2,0.7,0.4c0,0,0,0,0.1,0.1s0,0,0,0.1
	c-1.4,0.5-2.9,0.3-4.2-0.4C116.7,38.3,116.1,37.5,115.7,36.7L115.7,36.7z M135,26c-0.8-0.8-1.8-1.5-2.7-2.2
	c-0.4-0.3-0.8-0.6-1.4-0.8l3.4-1.1l1.3,4.8C135.5,26.4,135.3,26.2,135,26z"/>
<path class="st1" d="M130.9,23c0.5,0.3,0.9,0.6,1.4,0.8c0.9,0.7,1.9,1.4,2.7,2.2c0.2,0.2,0.4,0.4,0.6,0.6l-1.3-4.8L130.9,23z"/>
<path class="st1" d="M117.5,38.9c1.3,0.7,2.8,0.9,4.2,0.4c0,0,0,0,0-0.1s0-0.1-0.1-0.1c-0.2-0.1-0.5-0.3-0.7-0.4
	c-1.1-0.5-1.7-0.8-2-0.9c-0.6-0.2-1.5-0.6-2.7-1l-0.4-0.1l0,0C116.1,37.6,116.7,38.3,117.5,38.9z"/>
<path class="st22" d="M230.7,13.1l20,18.5c0,0-18.1-4.3-20.2,0.9L230.7,13.1z"/>
<polygon class="st0" points="238,19.9 245.7,27 245.8,17.9 235.6,17.7 "/>
</svg>
