<svg width="100" height="100" xmlns="http://www.w3.org/2000/svg" xmlns:svg="http://www.w3.org/2000/svg">
	<g class="layer">
		<title>Layer 1</title>
		<path clip-rule="evenodd" d="m0,0l100,0l0,100l-100,0l0,-100z" fill="#222222" fill-rule="evenodd" id="svg_1"/>
		<g clip-rule="evenodd" fill-rule="evenodd" id="svg_2">
			<path d="m96,95l4,0l0,1l-4,0l0,4l-1,0l0,-4l-9,0l0,4l-1,0l0,-4l-9,0l0,4l-1,0l0,-4l-9,0l0,4l-1,0l0,-4l-9,0l0,4l-1,0l0,-4l-9,0l0,4l-1,0l0,-4l-9,0l0,4l-1,0l0,-4l-9,0l0,4l-1,0l0,-4l-9,0l0,4l-1,0l0,-4l-15,0l0,-1l15,0l0,-9l-15,0l0,-1l15,0l0,-9l-15,0l0,-1l15,0l0,-9l-15,0l0,-1l15,0l0,-9l-15,0l0,-1l15,0l0,-9l-15,0l0,-1l15,0l0,-9l-15,0l0,-1l15,0l0,-9l-15,0l0,-1l15,0l0,-9l-15,0l0,-1l15,0l0,-15l1,0l0,15l9,0l0,-15l1,0l0,15l9,0l0,-15l1,0l0,15l9,0l0,-15l1,0l0,15l9,0l0,-15l1,0l0,15l9,0l0,-15l1,0l0,15l9,0l0,-15l1,0l0,15l9,0l0,-15l1,0l0,15l9,0l0,-15l1,0l0,15l4,0l0,1l-4,0l0,9l4,0l0,1l-4,0l0,9l4,0l0,1l-4,0l0,9l4,0l0,1l-4,0l0,9l4,0l0,1l-4,0l0,9l4,0l0,1l-4,0l0,9l4,0l0,1l-4,0l0,9l4,0l0,1l-4,0l0,9zm-1,0l0,-9l-9,0l0,9l9,0zm-10,0l0,-9l-9,0l0,9l9,0zm-10,0l0,-9l-9,0l0,9l9,0zm-10,0l0,-9l-9,0l0,9l9,0zm-10,0l0,-9l-9,0l0,9l9,0zm-10,0l0,-9l-9,0l0,9l9,0zm-10,0l0,-9l-9,0l0,9l9,0zm-10,0l0,-9l-9,0l0,9l9,0zm-9,-10l9,0l0,-9l-9,0l0,9zm10,0l9,0l0,-9l-9,0l0,9zm10,0l9,0l0,-9l-9,0l0,9zm10,0l9,0l0,-9l-9,0l0,9zm10,0l9,0l0,-9l-9,0l0,9zm10,0l9,0l0,-9l-9,0l0,9zm10,0l9,0l0,-9l-9,0l0,9zm10,0l9,0l0,-9l-9,0l0,9zm9,-10l0,-9l-9,0l0,9l9,0zm-10,0l0,-9l-9,0l0,9l9,0zm-10,0l0,-9l-9,0l0,9l9,0zm-10,0l0,-9l-9,0l0,9l9,0zm-10,0l0,-9l-9,0l0,9l9,0zm-10,0l0,-9l-9,0l0,9l9,0zm-10,0l0,-9l-9,0l0,9l9,0zm-10,0l0,-9l-9,0l0,9l9,0zm-9,-10l9,0l0,-9l-9,0l0,9zm10,0l9,0l0,-9l-9,0l0,9zm10,0l9,0l0,-9l-9,0l0,9zm10,0l9,0l0,-9l-9,0l0,9zm10,0l9,0l0,-9l-9,0l0,9zm10,0l9,0l0,-9l-9,0l0,9zm10,0l9,0l0,-9l-9,0l0,9zm10,0l9,0l0,-9l-9,0l0,9zm9,-10l0,-9l-9,0l0,9l9,0zm-10,0l0,-9l-9,0l0,9l9,0zm-10,0l0,-9l-9,0l0,9l9,0zm-10,0l0,-9l-9,0l0,9l9,0zm-10,0l0,-9l-9,0l0,9l9,0zm-10,0l0,-9l-9,0l0,9l9,0zm-10,0l0,-9l-9,0l0,9l9,0zm-10,0l0,-9l-9,0l0,9l9,0zm-9,-10l9,0l0,-9l-9,0l0,9zm10,0l9,0l0,-9l-9,0l0,9zm10,0l9,0l0,-9l-9,0l0,9zm10,0l9,0l0,-9l-9,0l0,9zm10,0l9,0l0,-9l-9,0l0,9zm10,0l9,0l0,-9l-9,0l0,9zm10,0l9,0l0,-9l-9,0l0,9zm10,0l9,0l0,-9l-9,0l0,9zm9,-10l0,-9l-9,0l0,9l9,0zm-10,0l0,-9l-9,0l0,9l9,0zm-10,0l0,-9l-9,0l0,9l9,0zm-10,0l0,-9l-9,0l0,9l9,0zm-10,0l0,-9l-9,0l0,9l9,0zm-10,0l0,-9l-9,0l0,9l9,0zm-10,0l0,-9l-9,0l0,9l9,0zm-10,0l0,-9l-9,0l0,9l9,0zm-9,-10l9,0l0,-9l-9,0l0,9zm10,0l9,0l0,-9l-9,0l0,9zm10,0l9,0l0,-9l-9,0l0,9zm10,0l9,0l0,-9l-9,0l0,9zm10,0l9,0l0,-9l-9,0l0,9zm10,0l9,0l0,-9l-9,0l0,9zm10,0l9,0l0,-9l-9,0l0,9zm10,0l9,0l0,-9l-9,0l0,9z" fill="#353535" id="svg_3" opacity="0.9"/>
			<path d="m6,5l0,-5l-1,0l0,5l-5,0l0,1l5,0l0,94l1,0l0,-94l94,0l0,-1l-94,0z" fill="#353535" id="svg_4"/>
		</g>
	</g>
</svg>
